<svg width="1193" height="229" viewBox="0 0 1193 229" fill="none" xmlns="http://www.w3.org/2000/svg">
<path d="M1168.65 180.226V192.189L1180.66 204.153V216.116C1180.66 222.624 1175.19 228.079 1168.65 228.079H1156.65C1150.12 228.079 1144.65 222.624 1144.65 216.116V204.153H1156.65V216.116H1168.65V204.153L1156.65 192.189V180.226C1156.65 173.718 1162.12 168.263 1168.65 168.263H1180.66C1187.19 168.263 1192.66 173.718 1192.66 180.226V192.189H1180.66V180.226H1168.65Z" fill="black"/>
<path d="M1102.86 204.153V168.263H1126.87C1133.4 168.263 1138.87 173.718 1138.87 180.226V192.189C1138.87 198.697 1133.4 204.153 1126.87 204.153V216.116H1138.77V228.079H1126.77C1120.24 227.984 1114.86 222.624 1114.86 216.116V204.153L1102.86 216.116V228.079H1090.85V216.116L1102.86 204.153ZM1114.86 180.226V192.189H1126.87V180.226H1114.86Z" fill="black"/>
<path d="M1056.7 192.189V168.263H1092.71V180.226H1068.7V192.189H1080.71V204.153L1068.7 216.116H1080.71V228.079H1044.69V204.153L1056.7 192.189ZM1068.7 204.153V192.189L1056.7 204.153V216.116L1068.7 204.153Z" fill="black"/>
<path d="M1013.45 228.079V204.153L1025.45 192.189V180.226H1013.45V168.263H1049.46V180.226H1037.46V192.189L1025.45 204.153V228.079H1013.45Z" fill="black"/>
<path d="M973.533 228.079V204.153L985.538 192.189V180.226H973.533V168.263H1009.55V180.226H997.542V192.189L985.538 204.153V228.079H973.533Z" fill="black"/>
<path d="M932.671 192.189V168.263H968.686V180.226H944.676V192.189H956.681V204.153L944.676 216.116H956.681V228.079H920.666V204.153L932.671 192.189ZM944.676 204.153V192.189L932.671 204.153V216.116L944.676 204.153Z" fill="black"/>
<path d="M879.869 228.079V204.153L891.873 192.189V168.263H903.878V192.189L891.873 204.153V216.116H915.883V228.079H879.869Z" fill="black"/>
<path d="M827.022 228.079V216.116L815.017 204.153V168.263H851.032V180.226H827.022V192.189H851.032V204.153H827.022L839.027 216.116V228.079H827.022Z" fill="black"/>
<path d="M761.216 216.116V204.153L773.22 192.189V180.226C773.22 173.718 778.695 168.263 785.225 168.263H797.23C803.761 168.263 809.235 173.718 809.235 180.226V192.189L797.23 204.153V216.116C797.23 222.624 791.756 228.079 785.225 228.079H773.22C766.69 228.079 761.216 222.624 761.216 216.116ZM785.225 180.226V192.189L773.22 204.153V216.116H785.225V204.153L797.23 192.189V180.226H785.225Z" fill="black"/>
<path d="M617.132 228.079V204.153L629.137 192.189V168.263H653.146C659.677 168.263 665.151 173.718 665.151 180.226V192.189L653.146 204.153H653.242V216.116H653.146C653.146 222.624 647.672 228.079 641.142 228.079H617.132ZM629.137 216.116H641.238V204.153H641.142L653.146 192.189V180.226H641.142V192.189L629.137 204.153V216.116Z" fill="black"/>
<path d="M576.334 228.079V204.153L588.339 192.189V168.263H600.344V192.189L588.339 204.153V216.116H612.349V228.079H576.334Z" fill="black"/>
<path d="M534.546 204.153V168.263H558.556C565.086 168.263 570.56 173.718 570.56 180.226V192.189C570.56 198.697 565.086 204.153 558.556 204.153V216.116H570.464V228.079H558.459C551.929 227.984 546.551 222.624 546.551 216.116V204.153L534.546 216.116V228.079H522.541V216.116L534.546 204.153ZM546.551 180.226V192.189H558.556V180.226H546.551Z" fill="black"/>
<path d="M479.304 216.116V204.153L491.309 192.189V180.226C491.309 173.718 496.783 168.263 503.314 168.263H515.318C521.849 168.263 527.323 173.718 527.323 180.226V192.189L515.318 204.153V216.116C515.318 222.624 509.844 228.079 503.314 228.079H491.309C484.778 228.079 479.304 222.624 479.304 216.116ZM503.314 180.226V192.189L491.309 204.153V216.116H503.314V204.153L515.318 192.189V180.226H503.314Z" fill="black"/>
<path d="M470.193 192.189V216.116C470.193 222.624 464.719 228.079 458.188 228.079C451.658 228.079 446.183 222.624 446.183 216.116H434.179V192.189L446.183 180.226V168.263H458.188V180.226L446.183 192.189V216.116H458.188V192.189L470.193 180.226V168.263H482.198V180.226L470.193 192.189ZM434.179 216.116C434.179 222.624 428.704 228.079 422.174 228.079C415.643 228.079 410.169 222.624 410.169 216.116V192.189L422.174 180.226V168.263H434.179V180.226L422.174 192.189V216.116H434.179Z" fill="black"/>
<path d="M184.919 192.189V168.263H220.933V180.226H196.923V192.189H208.928V204.153L196.923 216.116H208.928V228.079H172.914V204.153L184.919 192.189ZM196.923 204.153V192.189L184.919 204.153V216.116L196.923 204.153Z" fill="black"/>
<path d="M151.791 228.079V204.153H139.786V228.079H127.781V192.189L139.786 180.226V168.263H151.791V180.226L139.786 192.189H151.791L163.796 180.226V168.263H175.801V180.226L163.796 192.189V228.079H151.791Z" fill="black"/>
<path d="M94.6163 228.079V204.153L106.621 192.189V180.226H94.6163V168.263H130.631V180.226H118.626V192.189L106.621 204.153V228.079H94.6163Z" fill="black"/>
<path d="M1.92084 228.079V192.189L13.9257 180.226V168.263H37.9353V216.116L49.9401 204.153V168.263H61.9449V204.153L49.9401 216.116V228.079H25.9305V180.226L13.9257 192.189V228.079H1.92084Z" fill="black"/>
<path d="M943.975 143.947V131.984L931.97 120.021V84.1309H967.985V96.0942H943.975V108.058H967.985V120.021H943.975L955.98 131.984V143.947H943.975Z" fill="black"/>
<path d="M896.936 143.947V120.021L908.941 108.058V84.1309H920.945V108.058L908.941 120.021V131.984H932.95V143.947H896.936Z" fill="black"/>
<path d="M865.695 108.058V84.1309H901.709V96.0942H877.7V108.058H889.705V120.021L877.7 131.984H889.705V143.947H853.69V120.021L865.695 108.058ZM877.7 120.021V108.058L865.695 120.021V131.984L877.7 120.021Z" fill="black"/>
<path d="M829.626 96.0942V108.058L841.631 120.021V131.984C841.631 138.492 836.157 143.947 829.626 143.947H817.622C811.091 143.947 805.617 138.492 805.617 131.984V120.021H817.622V131.984H829.626V120.021L817.622 108.058V96.0942C817.622 89.5861 823.096 84.1309 829.626 84.1309H841.631C848.162 84.1309 853.636 89.5861 853.636 96.0942V108.058H841.631V96.0942H829.626Z" fill="black"/>
<path d="M763.828 120.021V84.1309H787.838C794.369 84.1309 799.843 89.5861 799.843 96.0942V108.058C799.843 114.566 794.369 120.021 787.838 120.021V131.984H799.747V143.947H787.742C781.211 143.852 775.833 138.492 775.833 131.984V120.021L763.828 131.984V143.947H751.824V131.984L763.828 120.021ZM775.833 96.0942V108.058H787.838V96.0942H775.833Z" fill="black"/>
<path d="M708.587 131.984V120.021L720.591 108.058V84.1309H732.596V108.058L720.591 120.021V131.984H732.596V120.021L744.601 108.058V84.1309H756.606V108.058L744.601 120.021V131.984C744.601 138.492 739.127 143.947 732.596 143.947H720.591C714.061 143.947 708.587 138.492 708.587 131.984Z" fill="black"/>
<path d="M660.513 131.984V120.021L672.518 108.058V96.0942C672.518 89.5861 677.992 84.1309 684.523 84.1309H696.528C703.059 84.1309 708.533 89.5861 708.533 96.0942V108.058L696.528 120.021V131.984C696.528 138.492 691.054 143.947 684.523 143.947H672.518C665.988 143.947 660.513 138.492 660.513 131.984ZM684.523 96.0942V108.058L672.518 120.021V131.984H684.523V120.021L696.528 108.058V96.0942H684.523Z" fill="black"/>
<path d="M627.386 143.947V131.984C620.855 131.984 615.381 126.529 615.381 120.021V108.058L627.386 96.0942V84.1309H639.391V96.0942L627.386 108.058V120.021H639.391V108.058L651.395 96.0942V84.1309H663.4V96.0942L651.395 108.058V120.021C651.395 126.529 645.921 131.984 639.391 131.984V143.947H627.386Z" fill="black"/>
<path d="M528.435 108.058V84.1309H564.449V96.0942H540.439V108.058H552.444V120.021L540.439 131.984H552.444V143.947H516.43V120.021L528.435 108.058ZM540.439 120.021V108.058L528.435 120.021V131.984L540.439 120.021Z" fill="black"/>
<path d="M492.366 96.0942V108.058L504.371 120.021V131.984C504.371 138.492 498.897 143.947 492.366 143.947H480.361C473.831 143.947 468.357 138.492 468.357 131.984V120.021H480.361V131.984H492.366V120.021L480.361 108.058V96.0942C480.361 89.5861 485.836 84.1309 492.366 84.1309H504.371C510.902 84.1309 516.376 89.5861 516.376 96.0942V108.058H504.371V96.0942H492.366Z" fill="black"/>
<path d="M426.568 120.021V84.1309H450.578C457.108 84.1309 462.583 89.5861 462.583 96.0942V108.058C462.583 114.566 457.108 120.021 450.578 120.021V131.984H462.487V143.947H450.482C443.951 143.852 438.573 138.492 438.573 131.984V120.021L426.568 131.984V143.947H414.563V131.984L426.568 120.021ZM438.573 96.0942V108.058H450.578V96.0942H438.573Z" fill="black"/>
<path d="M380.407 108.058V84.1309H416.422V96.0942H392.412V108.058H404.417V120.021L392.412 131.984H404.417V143.947H368.402V120.021L380.407 108.058ZM392.412 120.021V108.058L380.407 120.021V131.984L392.412 120.021Z" fill="black"/>
<path d="M302.611 120.021V84.1309H362.636V120.021L350.631 131.984V143.947H338.626V131.984L350.631 120.021V96.0942H338.626V120.021L326.621 131.984V143.947H314.616V131.984L326.621 120.021V96.0942H314.616V120.021L302.611 131.984V143.947H290.607V131.984L302.611 120.021Z" fill="black"/>
<path d="M233.46 120.021V84.1309H293.484V120.021L281.479 131.984V143.947H269.474V131.984L281.479 120.021V96.0942H269.474V120.021L257.469 131.984V143.947H245.464V131.984L257.469 120.021V96.0942H245.464V120.021L233.46 131.984V143.947H221.455V131.984L233.46 120.021Z" fill="black"/>
<path d="M202.22 143.947V120.021L214.225 108.058V84.1309H226.23V108.058L214.225 120.021V143.947H202.22Z" fill="black"/>
<path d="M35.0859 131.984V120.021L47.0908 108.058V96.0942C47.0908 89.5861 52.5649 84.1309 59.0956 84.1309H71.1004C77.631 84.1309 83.1052 89.5861 83.1052 96.0942V108.058L71.1004 120.021V131.984C71.1004 138.492 65.6262 143.947 59.0956 143.947H47.0908C40.5601 143.947 35.0859 138.492 35.0859 131.984ZM59.0956 96.0942V108.058L47.0908 120.021V131.984H59.0956V120.021L71.1004 108.058V96.0942H59.0956Z" fill="black"/>
<path d="M3.84155 143.947V120.021L15.8464 108.058V96.0942H3.84155V84.1309H39.856V96.0942H27.8512V108.058L15.8464 120.021V143.947H3.84155Z" fill="black"/>
<path d="M1149.92 23.9266V0H1185.93V11.9633H1161.92V23.9266H1173.93V35.89L1161.92 47.8533H1173.93V59.8166H1137.91V35.89L1149.92 23.9266ZM1161.92 35.89V23.9266L1149.92 35.89V47.8533L1161.92 35.89Z" fill="black"/>
<path d="M1101.85 59.8166C1095.31 59.8166 1089.84 54.3614 1089.84 47.8533V35.89L1101.85 23.9266V11.9633C1101.85 5.45528 1107.32 0 1113.85 0H1125.85C1132.39 0 1137.86 5.45528 1137.86 11.9633V23.9266H1125.85V11.9633H1113.85V23.9266L1101.85 35.89V47.8533H1113.85V35.89H1125.85V47.8533C1125.85 54.3614 1120.38 59.8166 1113.85 59.8166H1101.85Z" fill="black"/>
<path d="M1024.04 59.8166V23.9266L1036.04 11.9633V0H1060.05V47.8533L1072.06 35.89V0H1084.06V35.89L1072.06 47.8533V59.8166H1048.05V11.9633L1036.04 23.9266V59.8166H1024.04Z" fill="black"/>
<path d="M984.144 23.9266V11.9633C984.144 5.45528 989.618 0 996.149 0H1008.15C1014.68 0 1020.16 5.45528 1020.16 11.9633V23.9266L1008.15 35.89V59.8166H996.149V47.8533H984.144V59.8166H972.139V35.89L984.144 23.9266ZM1008.15 23.9266V11.9633H996.149V23.9266L984.144 35.89H996.149L1008.15 23.9266Z" fill="black"/>
<path d="M951.016 59.8166V35.89H939.011V59.8166H927.007V23.9266L939.011 11.9633V0H951.016V11.9633L939.011 23.9266H951.016L963.021 11.9633V0H975.026V11.9633L963.021 23.9266V59.8166H951.016Z" fill="black"/>
<path d="M887.114 59.8166C880.583 59.8166 875.109 54.3614 875.109 47.8533V35.89L887.114 23.9266V11.9633C887.114 5.45528 892.588 0 899.119 0H911.123C917.654 0 923.128 5.45528 923.128 11.9633V23.9266H911.123V11.9633H899.119V23.9266L887.114 35.89V47.8533H899.119V35.89H911.123V47.8533C911.123 54.3614 905.649 59.8166 899.119 59.8166H887.114Z" fill="black"/>
<path d="M443.372 23.9266V11.9633C443.372 5.45528 448.846 0 455.376 0H467.381C473.912 0 479.386 5.45528 479.386 11.9633V23.9266L467.381 35.89V59.8166H455.376V47.8533H443.372V59.8166H431.367V35.89L443.372 23.9266ZM467.381 23.9266V11.9633H455.376V23.9266L443.372 35.89H455.376L467.381 23.9266Z" fill="black"/>
<path d="M195.081 47.8533V35.89L207.085 23.9266V0H219.09V23.9266L207.085 35.89V47.8533H219.09V35.89L231.095 23.9266V0H243.1V23.9266L231.095 35.89V47.8533C231.095 54.3614 225.621 59.8166 219.09 59.8166H207.085C200.555 59.8166 195.081 54.3614 195.081 47.8533Z" fill="black"/>
<path d="M133.106 23.9266V0H169.12V11.9633H145.111V23.9266H157.115V35.89L145.111 47.8533H157.115V59.8166H121.101V35.89L133.106 23.9266ZM145.111 35.89V23.9266L133.106 35.89V47.8533L145.111 35.89Z" fill="black"/>
<path d="M87.9733 23.9266V47.8533L99.9781 35.89V23.9266L111.983 11.9633V0H123.988V11.9633L111.983 23.9266V35.89L99.9781 47.8533C99.9781 54.3614 94.5039 59.8166 87.9733 59.8166C81.4427 59.8166 75.9685 54.3614 75.9685 47.8533V23.9266L87.9733 11.9633V0H99.9781V11.9633L87.9733 23.9266Z" fill="black"/>
<path d="M48.0732 59.8166V35.89L60.078 23.9266V0H72.0828V23.9266L60.078 35.89V59.8166H48.0732Z" fill="black"/>
<path d="M12.0048 35.89V47.8533H24.0096V35.89H36.0144V59.8166H24.0096V51.6816H23.3374C21.7047 56.3712 17.1909 59.8166 12.0048 59.8166C5.4742 59.8166 0 54.3614 0 47.8533V35.89L12.0048 23.9266V11.9633C12.0048 5.45528 17.479 0 24.0096 0H36.0144C42.5451 0 48.0193 5.45528 48.0193 11.9633V23.9266H36.0144V11.9633H24.0096V23.9266L12.0048 35.89Z" fill="black"/>
</svg>
