<svg width="385" height="166" viewBox="0 0 385 166" fill="none" xmlns="http://www.w3.org/2000/svg">
<path d="M60.0819 38H56.5443V10.7191H46.9096V7.57688H69.7165V10.7191H60.0819V38ZM82.4826 22.7884L90.5982 7.57688H94.4271L84.2722 26.2012V38H80.693V26.3676L70.5589 7.57688H74.4294L82.4826 22.7884ZM118.347 16.4416C118.347 19.5214 117.293 21.8936 115.184 23.5584C113.089 25.2092 110.086 26.0347 106.174 26.0347H102.594V38H99.0567V7.57688H106.943C114.546 7.57688 118.347 10.5318 118.347 16.4416ZM102.594 22.9965H105.778C108.913 22.9965 111.182 22.4902 112.583 21.4775C113.984 20.4647 114.684 18.8416 114.684 16.6081C114.684 14.5965 114.026 13.0983 112.708 12.1133C111.39 11.1283 109.337 10.6358 106.548 10.6358H102.594V22.9965ZM151.568 22.7468C151.568 27.6162 150.334 31.4451 147.864 34.2335C145.409 37.022 141.989 38.4162 137.605 38.4162C133.125 38.4162 129.663 37.0497 127.222 34.3168C124.794 31.5699 123.58 27.6994 123.58 22.7052C123.58 17.7526 124.801 13.9168 127.242 11.1977C129.684 8.46474 133.152 7.09827 137.647 7.09827C142.017 7.09827 145.43 8.48555 147.885 11.2601C150.341 14.0347 151.568 17.8636 151.568 22.7468ZM127.326 22.7468C127.326 26.8671 128.2 29.9954 129.948 32.1318C131.71 34.2543 134.262 35.3156 137.605 35.3156C140.977 35.3156 143.522 34.2543 145.242 32.1318C146.963 30.0092 147.823 26.8809 147.823 22.7468C147.823 18.6543 146.963 15.5538 145.242 13.4451C143.536 11.3225 141.004 10.2613 137.647 10.2613C134.276 10.2613 131.71 11.3295 129.948 13.4659C128.2 15.5884 127.326 18.6821 127.326 22.7468ZM172.18 22.0601H182.522V36.8555C180.913 37.3688 179.276 37.7572 177.611 38.0208C175.946 38.2844 174.018 38.4162 171.826 38.4162C167.22 38.4162 163.634 37.0497 161.067 34.3168C158.501 31.5699 157.218 27.7272 157.218 22.7884C157.218 19.6254 157.849 16.8578 159.111 14.4855C160.388 12.0994 162.219 10.2821 164.605 9.03353C166.991 7.7711 169.787 7.13989 172.991 7.13989C176.237 7.13989 179.262 7.73642 182.064 8.92948L180.691 12.0509C177.944 10.8855 175.301 10.3029 172.762 10.3029C169.058 10.3029 166.166 11.4058 164.085 13.6116C162.004 15.8173 160.963 18.8763 160.963 22.7884C160.963 26.8948 161.962 30.0092 163.96 32.1318C165.972 34.2543 168.919 35.3156 172.804 35.3156C174.913 35.3156 176.973 35.0728 178.984 34.5873V25.2231H172.18V22.0601ZM193.81 25.348V38H190.273V7.57688H198.617C202.349 7.57688 205.103 8.29133 206.879 9.72023C208.668 11.1491 209.563 13.2994 209.563 16.1711C209.563 20.1942 207.524 22.9133 203.445 24.3283L211.706 38H207.524L200.157 25.348H193.81ZM193.81 22.3098H198.659C201.156 22.3098 202.987 21.8173 204.153 20.8324C205.318 19.8335 205.901 18.3422 205.901 16.3584C205.901 14.3468 205.304 12.8971 204.111 12.0092C202.932 11.1214 201.031 10.6775 198.409 10.6775H193.81V22.3098ZM236.167 38L232.38 28.3237H220.186L216.44 38H212.861L224.889 7.45202H227.864L239.83 38H236.167ZM231.277 25.1399L227.739 15.7133C227.282 14.5202 226.81 13.0566 226.324 11.3225C226.019 12.6543 225.582 14.1179 225.013 15.7133L221.434 25.1399H231.277ZM263.729 16.4416C263.729 19.5214 262.674 21.8936 260.566 23.5584C258.471 25.2092 255.467 26.0347 251.555 26.0347H247.976V38H244.438V7.57688H252.325C259.927 7.57688 263.729 10.5318 263.729 16.4416ZM247.976 22.9965H251.16C254.295 22.9965 256.563 22.4902 257.964 21.4775C259.366 20.4647 260.066 18.8416 260.066 16.6081C260.066 14.5965 259.407 13.0983 258.089 12.1133C256.771 11.1283 254.718 10.6358 251.93 10.6358H247.976V22.9965ZM293.642 38H290.104V23.6832H274.081V38H270.543V7.57688H274.081V20.5202H290.104V7.57688H293.642V38ZM302.433 38V7.57688H305.971V38H302.433ZM327.789 10.3029C324.445 10.3029 321.803 11.4197 319.86 13.6532C317.932 15.8728 316.968 18.9179 316.968 22.7884C316.968 26.7699 317.897 29.8497 319.756 32.0277C321.629 34.1919 324.293 35.274 327.747 35.274C329.87 35.274 332.29 34.8925 335.009 34.1295V37.2301C332.901 38.0208 330.3 38.4162 327.206 38.4162C322.725 38.4162 319.264 37.0566 316.822 34.3376C314.394 31.6185 313.181 27.7549 313.181 22.7468C313.181 19.6116 313.763 16.8647 314.929 14.5064C316.108 12.148 317.8 10.3306 320.006 9.05434C322.226 7.77804 324.834 7.13989 327.83 7.13989C331.021 7.13989 333.809 7.72254 336.196 8.88786L334.697 11.926C332.394 10.8439 330.092 10.3029 327.789 10.3029ZM16.8511 56.8821C14.895 56.8821 13.369 57.6867 12.273 59.296C11.1771 60.8913 10.6291 63.0971 10.6291 65.9133C10.6291 71.7676 12.8557 74.6948 17.3089 74.6948C18.6545 74.6948 19.9586 74.5075 21.221 74.1329C22.4834 73.7584 23.7528 73.3075 25.0291 72.7803V79.7306C22.4904 80.8543 19.6187 81.4162 16.4141 81.4162C11.8222 81.4162 8.29845 80.0844 5.84296 77.4208C3.40134 74.7572 2.18053 70.9075 2.18053 65.8717C2.18053 62.7225 2.77013 59.9549 3.94932 57.5688C5.14238 55.1827 6.84874 53.3514 9.0684 52.0751C11.3019 50.785 13.9239 50.1399 16.9343 50.1399C20.2222 50.1399 23.3643 50.8543 26.3609 52.2832L23.843 58.7549C22.7193 58.2277 21.5956 57.7838 20.4719 57.4231C19.3482 57.0624 18.1412 56.8821 16.8511 56.8821ZM31.4067 81V50.5769H39.6264V74.3618H51.342V81H31.4067ZM75.3034 81L73.8051 75.2983H63.9207L62.3809 81H53.3496L63.2757 50.452H74.2421L84.293 81H75.3034ZM72.0988 68.5561L70.7878 63.5619C70.4826 62.452 70.108 61.0162 69.6641 59.2543C69.234 57.4925 68.9496 56.2301 68.8109 55.4671C68.6861 56.1746 68.4363 57.3399 68.0618 58.963C67.7011 60.5861 66.8895 63.7838 65.6271 68.5561H72.0988ZM113.894 50.5769V68.889C113.894 72.8705 112.763 75.9572 110.502 78.1491C108.254 80.3272 105.008 81.4162 100.763 81.4162C96.6151 81.4162 93.4244 80.3549 91.1908 78.2324C88.9712 76.1098 87.8614 73.0578 87.8614 69.0763V50.5769H96.1226V68.4312C96.1226 70.5815 96.5249 72.1422 97.3296 73.1133C98.1342 74.0844 99.3203 74.5699 100.888 74.5699C102.567 74.5699 103.78 74.0913 104.53 73.1341C105.293 72.163 105.674 70.5815 105.674 68.3896V50.5769H113.894ZM140.602 71.7607C140.602 73.6474 140.123 75.326 139.166 76.7965C138.209 78.2532 136.829 79.3908 135.025 80.2092C133.222 81.0139 131.106 81.4162 128.678 81.4162C126.653 81.4162 124.953 81.2775 123.58 81C122.207 80.7087 120.778 80.2092 119.293 79.5017V72.1769C120.861 72.9815 122.491 73.6127 124.183 74.0705C125.876 74.5145 127.43 74.7364 128.845 74.7364C130.066 74.7364 130.96 74.5283 131.529 74.1121C132.098 73.6821 132.382 73.1341 132.382 72.4682C132.382 72.052 132.264 71.6913 132.029 71.3861C131.807 71.0671 131.439 70.748 130.926 70.4289C130.426 70.1098 129.081 69.4578 126.889 68.4728C124.905 67.5711 123.414 66.6971 122.415 65.8509C121.43 65.0046 120.694 64.0335 120.209 62.9376C119.737 61.8416 119.501 60.5445 119.501 59.0462C119.501 56.2439 120.521 54.059 122.56 52.4913C124.6 50.9237 127.402 50.1399 130.967 50.1399C134.116 50.1399 137.328 50.8682 140.602 52.3249L138.084 58.6717C135.24 57.3676 132.785 56.7156 130.718 56.7156C129.649 56.7156 128.873 56.9029 128.387 57.2775C127.901 57.652 127.659 58.1168 127.659 58.6717C127.659 59.2682 127.964 59.8023 128.574 60.274C129.199 60.7457 130.877 61.6058 133.61 62.8543C136.232 64.0335 138.049 65.3029 139.062 66.6624C140.089 68.0081 140.602 69.7075 140.602 71.7607ZM159.153 81H150.933V57.2983H143.504V50.5769H166.561V57.2983H159.153V81ZM179.556 69.9295V81H171.336V50.5769H181.304C189.572 50.5769 193.706 53.5734 193.706 59.5665C193.706 63.0902 191.986 65.8162 188.546 67.7445L197.41 81H188.088L181.637 69.9295H179.556ZM179.556 63.7491H181.096C183.968 63.7491 185.403 62.4798 185.403 59.941C185.403 57.8462 183.995 56.7988 181.179 56.7988H179.556V63.7491ZM229.071 65.7468C229.071 70.8659 227.816 74.7572 225.305 77.4208C222.794 80.0844 219.118 81.4162 214.276 81.4162C209.504 81.4162 205.841 80.0775 203.289 77.4C200.75 74.7225 199.481 70.8243 199.481 65.7052C199.481 60.6416 200.743 56.778 203.268 54.1145C205.807 51.437 209.49 50.0983 214.318 50.0983C219.159 50.0983 222.828 51.4231 225.326 54.0728C227.823 56.7225 229.071 60.6139 229.071 65.7468ZM208.137 65.7468C208.137 71.6289 210.183 74.5699 214.276 74.5699C216.357 74.5699 217.897 73.8555 218.896 72.4266C219.908 70.9977 220.415 68.7711 220.415 65.7468C220.415 62.7087 219.901 60.4682 218.875 59.0254C217.862 57.5688 216.343 56.8405 214.318 56.8405C210.197 56.8405 208.137 59.8092 208.137 65.7468ZM257.07 60.2532C257.07 63.652 256.064 66.2809 254.052 68.1399C252.055 69.985 249.211 70.9075 245.521 70.9075H243.211V81H234.991V50.5769H245.521C249.363 50.5769 252.249 51.4162 254.177 53.0948C256.106 54.7734 257.07 57.1595 257.07 60.2532ZM243.211 64.2069H244.709C245.944 64.2069 246.922 63.8601 247.643 63.1665C248.378 62.4728 248.746 61.5156 248.746 60.2948C248.746 58.2416 247.608 57.215 245.333 57.215H243.211V64.2069ZM288.418 81H280.157V68.5977H270.606V81H262.344V50.5769H270.606V61.8555H280.157V50.5769H288.418V81ZM323.908 65.7468C323.908 70.8659 322.653 74.7572 320.142 77.4208C317.631 80.0844 313.954 81.4162 309.113 81.4162C304.341 81.4162 300.678 80.0775 298.126 77.4C295.587 74.7225 294.317 70.8243 294.317 65.7052C294.317 60.6416 295.58 56.778 298.105 54.1145C300.643 51.437 304.327 50.0983 309.154 50.0983C313.996 50.0983 317.665 51.4231 320.163 54.0728C322.66 56.7225 323.908 60.6139 323.908 65.7468ZM302.974 65.7468C302.974 71.6289 305.02 74.5699 309.113 74.5699C311.194 74.5699 312.734 73.8555 313.732 72.4266C314.745 70.9977 315.252 68.7711 315.252 65.7468C315.252 62.7087 314.738 60.4682 313.712 59.0254C312.699 57.5688 311.18 56.8405 309.154 56.8405C305.034 56.8405 302.974 59.8092 302.974 65.7468ZM329.828 50.5769H340.441C344.575 50.5769 347.641 51.1942 349.638 52.4289C351.65 53.6497 352.656 55.5572 352.656 58.1514C352.656 59.8578 352.219 61.3145 351.345 62.5214C350.471 63.7283 349.319 64.5052 347.89 64.852V65.0601C349.777 65.5595 351.144 66.3919 351.99 67.5572C352.836 68.7225 353.259 70.2347 353.259 72.0936C353.259 74.8543 352.219 77.0324 350.138 78.6277C348.071 80.2092 345.248 81 341.668 81H329.828V50.5769ZM338.048 62.2509H340.524C341.703 62.2509 342.612 62.0081 343.25 61.5225C343.902 61.037 344.228 60.3156 344.228 59.3584C344.228 57.652 342.938 56.7988 340.357 56.7988H338.048V62.2509ZM338.048 68.2647V74.6532H340.94C343.507 74.6532 344.79 73.5711 344.79 71.4069C344.79 70.3942 344.443 69.6173 343.749 69.0763C343.07 68.5353 342.078 68.2647 340.774 68.2647H338.048ZM369.833 61.8555L375.077 50.5769H383.984L373.974 69.1179V81H365.692V69.3676L355.683 50.5769H364.631L369.833 61.8555Z" fill="#A3F606"/>
<ellipse cx="192.5" cy="134" rx="192.5" ry="32" fill="#A3F606"/>
<ellipse cx="132" cy="134" rx="60" ry="10" fill="black"/>
</svg>
