<svg width="560" height="711" viewBox="0 0 560 711" fill="none" xmlns="http://www.w3.org/2000/svg">
<path d="M274.764 540.081V359.71H316.892V430.167H372.658V359.71H559.238V540.081H372.658V469.624H316.892V540.081H274.764Z" fill="black"/>
<path d="M153.692 541.081V360.71H220.883C232.436 360.71 242.545 363.352 251.21 368.636C259.875 373.921 266.614 381.348 271.428 390.919C276.241 400.489 278.648 411.674 278.648 424.474C278.648 437.391 276.165 448.576 271.2 458.029C266.285 467.482 259.368 474.763 250.45 479.871C241.582 484.979 231.22 487.533 219.363 487.533H179.231V449.486H210.85C215.816 449.486 220.047 448.488 223.543 446.492C227.09 444.437 229.801 441.531 231.676 437.773C233.601 434.015 234.564 429.582 234.564 424.474C234.564 419.307 233.601 414.904 231.676 411.263C229.801 407.564 227.09 404.746 223.543 402.808C220.047 400.812 215.816 399.814 210.85 399.814H195.952V541.081H153.692Z" fill="black"/>
<path d="M45.8212 541.026H0L51.6252 359.71H109.665L161.291 541.026H115.469L81.2563 409.643H80.0344L45.8212 541.026ZM37.2679 469.491H123.412V506.321H37.2679V469.491Z" fill="black"/>
<path d="M3.30054 354.988V180.283H225.139C236.312 180.283 246.089 182.643 254.468 187.364C262.848 192.084 269.366 198.88 274.021 207.751C278.676 216.623 281.004 227.258 281.004 239.656C281.004 252.167 278.603 262.716 273.8 271.304C269.047 279.891 262.358 286.374 253.733 290.753C245.158 295.132 235.136 297.322 223.669 297.322H184.858V260.47H215.437C220.239 260.47 224.331 259.788 227.712 258.423C231.142 257.001 233.764 254.755 235.577 251.684C237.439 248.613 238.371 244.603 238.371 239.656C238.371 234.651 237.439 230.585 235.577 227.457C233.764 224.272 231.142 221.941 227.712 220.462C224.331 218.926 220.239 218.159 215.437 218.159H201.029V354.988H3.30054ZM248.367 274.801L286.002 354.988H241.605L204.852 274.801H248.367Z" fill="black"/>
<path d="M512.514 237.49C511.867 234.429 510.848 231.744 509.455 229.434C508.062 227.066 506.321 225.074 504.231 223.457C502.192 221.782 499.804 220.54 497.068 219.732C494.382 218.866 491.422 218.433 488.188 218.433C481.224 218.433 475.279 220.367 470.355 224.236C465.48 228.106 461.749 233.679 459.162 240.955C456.625 248.232 455.356 257.01 455.356 267.289C455.356 277.684 456.575 286.578 459.013 293.97C461.45 301.362 465.082 307.022 469.907 310.949C474.732 314.876 480.727 316.839 487.89 316.839C494.208 316.839 499.456 315.771 503.635 313.634C507.863 311.497 511.022 308.465 513.111 304.538C515.2 300.611 516.245 295.991 516.245 290.678L523.409 291.544H488.487V257.241H556.241V281.842C556.241 298.012 553.281 311.844 547.361 323.336C541.491 334.771 533.383 343.549 523.035 349.67C512.738 355.734 500.923 358.766 487.592 358.766C472.718 358.766 459.659 355.099 448.417 347.764C437.174 340.43 428.394 329.977 422.076 316.406C415.808 302.835 412.674 286.693 412.674 267.982C412.674 253.314 414.59 240.32 418.42 229.001C422.3 217.682 427.673 208.124 434.538 200.328C441.403 192.474 449.337 186.554 458.341 182.57C467.345 178.527 476.996 176.506 487.293 176.506C496.347 176.506 504.754 178.007 512.514 181.01C520.324 183.956 527.214 188.171 533.184 193.658C539.203 199.086 544.053 205.525 547.734 212.975C551.415 220.425 553.654 228.597 554.45 237.49H512.514Z" fill="black"/>
<path d="M412.127 269.524C412.127 288.866 408.893 305.181 402.423 318.471C395.954 331.705 387.223 341.743 376.23 348.586C365.237 355.373 352.98 358.766 339.458 358.766C325.838 358.766 313.532 355.344 302.539 348.501C291.595 341.602 282.888 331.535 276.419 318.302C269.999 305.012 266.788 288.753 266.788 269.524C266.788 250.183 269.999 233.896 276.419 220.662C282.888 207.372 291.595 197.334 302.539 190.548C313.532 183.705 325.838 180.283 339.458 180.283C352.98 180.283 365.237 183.705 376.23 190.548C387.223 197.334 395.954 207.372 402.423 220.662C408.893 233.896 412.127 250.183 412.127 269.524ZM370.393 269.524C370.393 259.119 369.202 250.353 366.818 243.227C364.483 236.045 361.006 230.616 356.385 226.94C351.813 223.207 346.17 221.341 339.458 221.341C332.745 221.341 327.079 223.207 322.458 226.94C317.886 230.616 314.408 236.045 312.024 243.227C309.69 250.353 308.522 259.119 308.522 269.524C308.522 279.93 309.69 288.724 312.024 295.907C314.408 303.032 317.886 308.461 322.458 312.194C327.079 315.87 332.745 317.708 339.458 317.708C346.17 317.708 351.813 315.87 356.385 312.194C361.006 308.461 364.483 303.032 366.818 295.907C369.202 288.724 370.393 279.93 370.393 269.524Z" fill="black"/>
<path d="M268.109 176.594V0H494.914C505.916 0 515.543 2.58682 523.795 7.76047C532.046 12.9341 538.464 20.206 543.049 29.576C547.633 38.9461 549.925 49.897 549.925 62.4287C549.925 75.0754 547.56 86.0263 542.831 95.2813C538.151 104.536 531.564 111.665 523.071 116.666C514.626 121.667 504.758 124.168 493.466 124.168H455.248V86.9173H485.36C490.089 86.9173 494.118 85.94 497.447 83.9855C500.825 81.9736 503.407 79.1281 505.192 75.449C507.026 71.77 507.943 67.4299 507.943 62.4287C507.943 57.37 507.026 53.0586 505.192 49.4946C503.407 45.873 500.825 43.1137 497.447 41.2167C494.118 39.2622 490.089 38.285 485.36 38.285H471.172V176.594H268.109Z" fill="black"/>
<path d="M129.313 0H174.477L203.615 71.7412H204.781L233.919 0H279.083L224.303 121.063V176.594H184.093V121.063L129.313 0Z" fill="black"/>
<path d="M12.6721 38.6299V0H142.059V38.6299H97.2825V176.594H57.4488V38.6299H12.6721Z" fill="black"/>
<path d="M480.362 707.574C463.326 707.574 448.744 704.137 436.615 697.262C424.485 690.317 415.184 680.665 408.71 668.303C402.237 655.873 399 641.463 399 625.074C399 608.685 402.237 594.31 408.71 581.949C415.184 569.519 424.485 559.866 436.615 552.991C448.744 546.046 463.326 542.574 480.362 542.574C495.762 542.574 509.084 545.421 520.327 551.116C531.639 556.741 540.395 564.727 546.596 575.074C552.797 585.352 555.932 597.435 556 611.324H503.667C502.917 602.921 500.532 596.533 496.512 592.158C492.559 587.713 487.449 585.491 481.18 585.491C476.273 585.491 471.98 586.949 468.301 589.866C464.621 592.713 461.759 597.053 459.715 602.887C457.671 608.651 456.648 615.908 456.648 624.658C456.648 633.408 457.671 640.699 459.715 646.533C461.759 652.296 464.621 656.637 468.301 659.553C471.98 662.401 476.273 663.824 481.18 663.824C485.336 663.824 489.016 662.852 492.219 660.908C495.421 658.894 498.011 655.977 499.987 652.158C502.031 648.269 503.258 643.546 503.667 637.991H556C555.796 652.088 552.627 664.38 546.494 674.866C540.361 685.283 531.673 693.338 520.43 699.033C509.254 704.727 495.898 707.574 480.362 707.574Z" fill="black"/>
<path d="M13.1237 710.065V547.574H392V710.065H13.1237Z" fill="black"/>
</svg>
