<svg width="477" height="477" viewBox="0 0 477 477" fill="none" xmlns="http://www.w3.org/2000/svg">
<path d="M80.5719 342.667L91.4868 356.154C95.7386 361.407 98.1073 365.939 98.5928 369.747C99.1102 373.559 97.7205 376.799 94.4237 379.467C92.2553 381.222 89.9547 382.165 87.5221 382.295C85.0894 382.426 82.9179 381.762 81.0076 380.303L80.7431 380.517C82.0489 383.428 82.3965 386.02 81.7859 388.294C81.1753 390.568 79.6889 392.661 77.3265 394.573C73.8182 397.412 69.9802 398.33 65.8126 397.326C61.6769 396.326 57.7685 393.552 54.0874 389.003L41.9099 373.956L80.5719 342.667ZM74.1902 365.119L76.737 368.266C77.9497 369.764 79.1928 370.669 80.4661 370.981C81.7538 371.31 83.0058 370.983 84.2223 369.998C86.3907 368.243 86.1481 365.726 83.4942 362.447L81.1187 359.512L74.1902 365.119ZM66.5477 371.304L58.4291 377.874L61.404 381.55C64.0435 384.812 66.7384 385.33 69.4887 383.104C70.7756 382.062 71.4062 380.823 71.3804 379.385C71.3688 377.964 70.6924 376.426 69.3513 374.768L66.5477 371.304Z" fill="black"/>
<path d="M54.0116 344.573C46.4246 348.105 39.791 348.929 34.1107 347.046C28.4305 345.162 23.9201 340.632 20.5795 333.456C17.2867 326.383 16.7439 320.032 18.9509 314.401C21.1675 308.791 26.0694 304.22 33.6564 300.688C41.1612 297.194 47.7585 296.399 53.4483 298.304C59.1682 300.219 63.6937 304.754 67.0248 311.909C70.3654 319.085 70.9336 325.438 68.7293 330.967C66.5251 336.496 61.6192 341.032 54.0116 344.573ZM39.5676 313.547C30.8497 317.605 27.9026 322.667 30.7263 328.733C32.1621 331.817 34.2835 333.606 37.0905 334.101C39.907 334.616 43.5564 333.83 48.0388 331.743C52.5416 329.647 55.5081 327.34 56.9381 324.823C58.3983 322.317 58.4296 319.563 57.0321 316.561C54.1892 310.455 48.3677 309.45 39.5676 313.547Z" fill="black"/>
<path d="M6.49065 290.141L4.43416 276.792L24.4736 273.705L22.0959 258.272L2.0565 261.359L0 248.011L49.1571 240.438L51.2136 253.786L32.9898 256.594L35.3675 272.027L53.5913 269.219L55.6478 282.567L6.49065 290.141Z" fill="black"/>
<path d="M34.2899 230.873C28.7626 230.303 24.656 228.227 21.9701 224.644C19.3045 221.086 18.2809 216.306 18.8995 210.305L19.2867 206.549L2.87407 204.857L4.25198 191.49L53.7269 196.59L51.9618 213.714C51.3176 219.963 49.469 224.515 46.4159 227.369C43.3628 230.224 39.3208 231.392 34.2899 230.873ZM30.1834 207.672L29.9322 210.109C29.7253 212.117 30.1253 213.765 31.1324 215.055C32.1372 216.367 33.6322 217.125 35.6175 217.33C38.9565 217.674 40.8166 215.996 41.198 212.296L41.5538 208.844L30.1834 207.672Z" fill="black"/>
<path d="M33.6718 179.732C25.8566 176.738 20.6501 172.546 18.0521 167.154C15.4541 161.763 15.5708 155.372 18.4021 147.98C21.1929 140.695 25.3785 135.886 30.9589 133.555C36.5311 131.245 43.2248 131.587 51.04 134.581C58.7704 137.542 63.9306 141.728 66.5204 147.141C69.1234 152.582 69.0132 158.988 66.19 166.359C63.3586 173.75 59.1901 178.577 53.6846 180.84C48.1791 183.103 41.5081 182.733 33.6718 179.732ZM45.914 147.772C36.934 144.332 31.2474 145.736 28.8541 151.984C27.6372 155.161 27.8274 157.93 29.4247 160.29C31.014 162.672 34.1171 164.747 38.7342 166.516C43.3724 168.292 47.0931 168.819 49.8961 168.095C52.7121 167.401 54.7124 165.508 55.8969 162.416C58.3064 156.126 54.9788 151.244 45.914 147.772Z" fill="black"/>
<path d="M67.7306 99.8069L53.1549 89.078L61.1208 78.2559L101.177 107.74L91.5166 120.864C83.5036 131.75 75.5518 134.289 67.6612 128.481C63.0218 125.066 61.0999 120.159 61.8952 113.76L35.8516 112.585L44.8864 100.311L65.7139 102.547L67.7306 99.8069ZM75.8678 105.796L74.3754 107.824C71.5924 111.605 71.8721 114.725 75.2147 117.186C77.9727 119.216 80.7164 118.377 83.4457 114.669L85.0187 112.532L75.8678 105.796Z" fill="black"/>
<path d="M84.596 56.6032L94.8837 47.958L119.813 77.6229L129.111 69.8094L136.18 78.2218L107.322 102.472L100.253 94.0598L109.525 86.2681L84.596 56.6032Z" fill="black"/>
<path d="M125.804 45.3557C124.393 42.6132 123.832 39.8151 124.124 36.9614C124.425 34.1278 125.581 31.4415 127.59 28.9025C129.609 26.3836 132.384 24.216 135.913 22.3997C138.857 20.8843 141.431 19.8146 143.635 19.1904C145.849 18.5863 148.3 18.2432 150.987 18.1611L156.467 28.8086C153.587 28.8118 150.745 29.1138 147.942 29.7146C145.15 30.3355 142.725 31.1753 140.668 32.234C138.894 33.1473 137.749 34.1193 137.233 35.1498C136.728 36.2005 136.725 37.2098 137.223 38.1777C137.534 38.7827 137.976 39.2188 138.547 39.486C139.108 39.7837 139.881 39.9725 140.866 40.0523C141.831 40.1425 144.275 40.0835 148.198 39.8754C151.756 39.7019 154.578 39.8566 156.663 40.3394C158.728 40.8326 160.523 41.6942 162.049 42.924C163.554 44.1642 164.868 45.8732 165.988 48.0511C168.085 52.1246 168.238 56.0636 166.446 59.868C164.655 63.6724 161.167 66.9083 155.985 69.5758C151.407 71.9318 146.194 73.2758 140.345 73.6079L139.257 62.4983C144.366 62.2662 148.424 61.3769 151.428 59.8304C152.981 59.0312 153.97 58.1777 154.396 57.27C154.821 56.3623 154.826 55.5051 154.411 54.6985C153.965 53.8313 153.122 53.2833 151.882 53.0543C150.621 52.8358 147.538 52.8413 142.631 53.0711C137.937 53.3186 134.346 52.8331 131.857 51.6146C129.358 50.4265 127.34 48.3403 125.804 45.3557Z" fill="black"/>
<path d="M181.019 58.8316L174.318 29.6536C172.861 23.3096 173.533 17.9776 176.334 13.6577C179.118 9.3649 183.892 6.44182 190.656 4.88846C197.265 3.37063 202.738 3.89406 207.073 6.45876C211.387 9.02853 214.272 13.4854 215.729 19.8294L222.498 49.3058L209.335 52.3287L202.802 23.8802C202.015 20.454 200.803 18.1145 199.165 16.8616C197.528 15.6087 195.46 15.2691 192.962 15.8427C190.288 16.457 188.529 17.6637 187.685 19.4631C186.825 21.2896 186.796 23.9491 187.598 27.4416L194.116 55.8238L181.019 58.8316Z" fill="black"/>
<path d="M243.816 0.62895L245.865 10.0467L262.009 10.7382L264.923 1.53306L279.675 2.16493L261.325 51.3659L243.413 50.5986L229.133 0L243.816 0.62895ZM248.18 21.1784L249.972 29.4274C250.393 31.2615 250.904 33.6329 251.506 36.5417C252.085 39.4495 252.461 41.5314 252.635 42.7873C252.888 41.6405 253.377 39.7546 254.103 37.1297C254.805 34.5038 256.355 29.3376 258.751 21.6312L248.18 21.1784Z" fill="black"/>
<path d="M325.775 15.5696L311.679 63.2674L298.792 59.459L309.813 22.1686L291.445 16.7404L294.52 6.33301L325.775 15.5696Z" fill="black"/>
<path d="M337.861 66.2985C340.634 67.8918 343.453 67.9944 346.317 66.6061C349.17 65.2374 351.743 62.5572 354.037 58.5654C358.806 50.2671 358.034 44.3042 351.722 40.6768C349.815 39.5806 347.814 38.7839 345.719 38.2865C343.625 37.789 341.458 37.3941 339.22 37.1017L344.881 27.25C349.395 27.7252 353.923 29.268 358.466 31.8784C364.975 35.6189 368.884 40.3769 370.195 46.1526C371.486 51.917 370.081 58.3683 365.979 65.5063C363.414 69.9701 360.324 73.4128 356.708 75.8345C353.074 78.2449 349.163 79.4506 344.977 79.4516C340.76 79.461 336.518 78.2396 332.251 75.7874C327.591 73.1092 323.719 69.537 320.636 65.0706L329.476 57.9484C330.64 59.6109 331.871 61.1555 333.17 62.5821C334.469 64.0087 336.033 65.2475 337.861 66.2985Z" fill="black"/>
<path d="M385.718 93.1347L366.757 100.48L356.263 90.3863L389.07 79.8846L402.536 65.8848L412.295 75.2713L399.111 88.9769L389.608 122.461L379.065 112.32L385.718 93.1347Z" fill="black"/>
<path d="M410.798 158.939L401.624 144.212C398.051 138.475 396.257 133.687 396.244 129.848C396.199 126.001 397.977 122.957 401.577 120.715C403.944 119.24 406.343 118.587 408.774 118.756C411.204 118.926 413.277 119.852 414.994 121.535L415.282 121.355C414.345 118.306 414.318 115.69 415.204 113.508C416.09 111.327 417.822 109.433 420.402 107.826C424.233 105.44 428.154 105.001 432.167 106.509C436.148 108.011 439.686 111.245 442.779 116.211L453.014 132.642L410.798 158.939ZM419.892 137.442L417.752 134.006C416.732 132.369 415.61 131.318 414.385 130.853C413.147 130.368 411.864 130.539 410.536 131.366C408.168 132.841 408.1 135.369 410.33 138.949L412.327 142.155L419.892 137.442ZM428.237 132.244L437.102 126.722L434.602 122.708C432.383 119.147 429.773 118.301 426.77 120.172C425.364 121.047 424.586 122.2 424.435 123.63C424.272 125.041 424.754 126.651 425.881 128.461L428.237 132.244Z" fill="black"/>
<path d="M436.835 159.853C444.859 157.476 451.542 157.638 456.883 160.337C462.224 163.037 466.018 168.181 468.266 175.771C470.481 183.251 470.083 189.614 467.071 194.858C464.053 200.081 458.531 203.88 450.507 206.257C442.569 208.607 435.927 208.422 430.58 205.701C425.204 202.964 421.396 197.812 419.154 190.244C416.907 182.655 417.28 176.288 420.274 171.144C423.268 165.999 428.789 162.235 436.835 159.853ZM446.553 192.668C455.774 189.937 459.434 185.364 457.534 178.949C456.568 175.687 454.733 173.605 452.03 172.702C449.32 171.778 445.594 172.018 440.854 173.422C436.091 174.833 432.817 176.677 431.032 178.956C429.219 181.22 428.783 183.939 429.723 187.114C431.636 193.573 437.246 195.424 446.553 192.668Z" fill="black"/>
<path d="M475.852 220.696L475.948 234.202L455.673 234.346L455.784 249.961L476.059 249.817L476.155 263.322L426.419 263.675L426.323 250.17L444.762 250.039L444.651 234.424L426.212 234.555L426.117 221.05L475.852 220.696Z" fill="black"/>
<path d="M439.723 275.242C445.107 276.616 448.864 279.272 450.996 283.21C453.111 287.121 453.422 291.999 451.93 297.844L450.996 301.503L466.983 305.584L463.66 318.604L415.468 306.303L419.725 289.624C421.279 283.537 423.775 279.305 427.214 276.929C430.653 274.553 434.822 273.991 439.723 275.242ZM440.382 298.794L440.988 296.421C441.487 294.465 441.333 292.775 440.526 291.352C439.725 289.907 438.357 288.938 436.423 288.444C433.171 287.614 431.085 289.001 430.165 292.605L429.307 295.967L440.382 298.794Z" fill="black"/>
<path d="M432.829 325.912C440.12 330.022 444.654 334.934 446.431 340.648C448.209 346.362 447.154 352.667 443.267 359.562C439.436 366.359 434.589 370.5 428.726 371.986C422.875 373.452 416.304 372.13 409.014 368.02C401.803 363.955 397.314 359.055 395.548 353.321C393.773 347.556 394.823 341.236 398.699 334.36C402.586 327.465 407.419 323.303 413.197 321.874C418.975 320.445 425.519 321.791 432.829 325.912ZM416.023 355.725C424.4 360.447 430.231 359.894 433.517 354.066C435.187 351.103 435.406 348.336 434.173 345.766C432.951 343.177 430.187 340.668 425.88 338.24C421.553 335.801 417.95 334.733 415.071 335.037C412.184 335.31 409.927 336.889 408.301 339.773C404.993 345.641 407.567 350.958 416.023 355.725Z" fill="black"/>
<path d="M387.418 400.022L400.275 412.76L390.818 422.306L355.484 387.303L366.952 375.726C376.465 366.123 384.702 364.769 391.662 371.665C395.755 375.719 396.942 380.853 395.223 387.068L420.818 392.023L410.092 402.851L389.812 397.606L387.418 400.022ZM380.24 392.912L382.011 391.123C385.315 387.788 385.493 384.66 382.544 381.739C380.112 379.329 377.275 379.759 374.035 383.03L372.167 384.915L380.24 392.912Z" fill="black"/>
<path d="M364.431 440.293L352.992 447.344L332.659 414.359L322.32 420.732L316.554 411.378L348.641 391.599L354.408 400.953L344.098 407.308L364.431 440.293Z" fill="black"/>
<path d="M322.037 445.387C323.03 448.307 323.172 451.157 322.464 453.937C321.749 456.696 320.21 459.183 317.849 461.398C315.481 463.593 312.418 465.328 308.66 466.605C305.525 467.671 302.822 468.35 300.55 468.643C298.271 468.915 295.796 468.894 293.126 468.58L289.273 457.242C292.123 457.662 294.978 457.782 297.838 457.6C300.692 457.397 303.214 456.923 305.404 456.178C307.293 455.536 308.569 454.743 309.23 453.8C309.885 452.835 310.037 451.837 309.686 450.806C309.467 450.162 309.095 449.666 308.569 449.318C308.058 448.94 307.321 448.64 306.359 448.416C305.418 448.185 302.992 447.884 299.081 447.512C295.536 447.16 292.767 446.592 290.776 445.807C288.806 445.016 287.157 443.899 285.829 442.458C284.523 441.01 283.475 439.127 282.687 436.807C281.213 432.47 281.641 428.551 283.973 425.052C286.305 421.552 290.23 418.865 295.749 416.989C300.624 415.332 305.978 414.77 311.812 415.303L311.254 426.451C306.165 425.929 302.022 426.212 298.822 427.299C297.169 427.861 296.065 428.56 295.51 429.395C294.956 430.23 294.824 431.077 295.116 431.936C295.43 432.859 296.183 433.526 297.376 433.935C298.591 434.336 301.642 434.785 306.529 435.279C311.208 435.725 314.689 436.734 316.971 438.306C319.268 439.848 320.957 442.209 322.037 445.387Z" fill="black"/>
<path d="M269.347 423.952L271.714 453.796C272.228 460.285 270.785 465.461 267.383 469.326C264.002 473.166 258.852 475.36 251.934 475.909C245.174 476.445 239.836 475.128 235.922 471.958C232.03 468.785 229.827 463.955 229.312 457.466L226.921 427.317L240.385 426.249L242.693 455.347C242.971 458.851 243.828 461.343 245.265 462.821C246.702 464.3 248.697 464.938 251.252 464.735C253.988 464.518 255.904 463.581 257.001 461.925C258.119 460.243 258.537 457.617 258.253 454.044L255.951 425.015L269.347 423.952Z" fill="black"/>
<path d="M198.726 472.355L198.073 462.739L182.202 459.7L177.977 468.381L163.475 465.605L188.806 419.606L206.414 422.978L213.16 475.118L198.726 472.355ZM197.406 451.388L196.837 442.966C196.688 441.09 196.528 438.67 196.357 435.704C196.208 432.743 196.14 430.629 196.151 429.361C195.733 430.458 194.974 432.253 193.874 434.744C192.796 437.239 190.509 442.124 187.015 449.399L197.406 451.388Z" fill="black"/>
<path d="M119.85 445.56L140.818 400.459L153.004 406.124L136.61 441.384L153.978 449.459L149.403 459.3L119.85 445.56Z" fill="black"/>
<path d="M115.302 393.596C112.792 391.615 110.019 391.102 106.982 392.057C103.96 392.995 101.023 395.271 98.171 398.885C92.2421 406.398 92.1352 412.41 97.8503 416.92C99.5773 418.283 101.441 419.363 103.44 420.161C105.44 420.959 107.525 421.666 109.697 422.282L102.658 431.201C98.2622 430.073 94.0077 427.885 89.8949 424.64C84.0018 419.99 80.8282 414.712 80.3744 408.807C79.9384 402.915 82.2704 396.738 87.3704 390.275C90.5596 386.234 94.1192 383.279 98.0491 381.411C101.997 379.557 106.041 378.935 110.182 379.545C114.356 380.151 118.374 381.979 122.237 385.027C126.457 388.357 129.766 392.456 132.165 397.325L122.379 403.08C121.471 401.266 120.478 399.558 119.401 397.957C118.325 396.356 116.958 394.902 115.302 393.596Z" fill="black"/>
</svg>
