<svg width="369" height="369" viewBox="0 0 369 369" fill="none" xmlns="http://www.w3.org/2000/svg">
<path d="M56.5337 274.581L58.5967 277.286C60.6185 279.937 62.5525 281.557 64.3989 282.146C66.2453 282.734 68.1153 282.306 70.0089 280.862C71.8844 279.432 72.7238 277.765 72.527 275.861C72.344 273.976 71.221 271.68 69.158 268.975L67.2188 266.432L56.5337 274.581ZM49.7169 279.78L34.5413 291.354L28.146 282.968L67.6944 252.807L76.4828 264.33C80.5813 269.704 82.6311 274.43 82.6321 278.508C82.6512 282.573 80.668 286.125 76.6825 289.164C74.3561 290.938 71.794 291.88 68.9961 291.988C66.2162 292.083 63.4183 291.351 60.6024 289.79C56.2503 302.522 53.4635 310.779 52.242 314.563L45.1452 305.258L53.1208 284.244L49.7169 279.78Z" fill="black"/>
<path d="M13.7694 252.159L9.87645 242.358L47.9436 227.238L42.9581 214.686L51.1153 211.446L64.9793 246.352L56.8221 249.592L51.8366 237.04L13.7694 252.159Z" fill="black"/>
<path d="M16.3395 211.513C11.8689 211.937 8.19349 210.657 5.31312 207.673C2.43489 204.711 0.723641 200.362 0.179364 194.627C-0.322057 189.344 0.227832 184.576 1.82903 180.323L11.5829 179.398C10.4099 182.881 9.62784 185.803 9.23679 188.164C8.84788 190.547 8.7445 192.698 8.92664 194.617C9.1452 196.92 9.75263 198.64 10.7489 199.775C11.7473 200.934 13.1158 201.43 14.8543 201.265C15.8252 201.173 16.6575 200.821 17.3511 200.208C18.0674 199.593 18.7251 198.722 19.3243 197.595C19.9257 196.49 20.8408 194.25 22.0697 190.876C23.205 187.715 24.3557 185.316 25.5217 183.679C26.6877 182.042 28.0971 180.69 29.7499 179.621C31.4027 178.553 33.3919 177.909 35.7175 177.688C40.0977 177.272 43.6813 178.425 46.4682 181.144C49.2573 183.887 50.9004 187.877 51.3975 193.116C51.6418 195.689 51.5695 198.168 51.1806 200.552C50.7938 202.958 50.1683 205.489 49.3041 208.145L40.8206 205.533C41.6536 202.788 42.2022 200.527 42.4662 198.747C42.7323 196.991 42.7861 195.277 42.6275 193.606C42.4389 191.619 41.8314 190.139 40.805 189.166C39.7786 188.192 38.5203 187.776 37.0301 187.918C36.1044 188.006 35.3119 188.297 34.6527 188.793C34.0161 189.286 33.4143 190.027 32.8474 191.015C32.3052 192.023 31.3647 194.356 30.026 198.014C28.2526 202.853 26.3297 206.236 24.2573 208.164C22.2075 210.09 19.5682 211.206 16.3395 211.513Z" fill="black"/>
<path d="M51.4909 169.768L20.0777 162.772C16.4914 161.973 13.5279 160.465 11.187 158.247C8.8412 156.052 7.28656 153.278 6.52307 149.924C5.75958 146.571 5.83882 142.824 6.76079 138.685C8.15114 132.442 10.8248 127.949 14.7817 125.205C18.7608 122.467 23.5286 121.716 29.0851 122.954L60.3655 129.92L58.0803 140.181L28.3606 133.562C24.6194 132.729 21.7067 132.87 19.6225 133.986C17.5384 135.102 16.1093 137.398 15.3353 140.873C14.5859 144.238 14.918 146.868 16.3316 148.763C17.7624 150.685 20.3595 152.065 24.1229 152.903L53.7761 159.507L51.4909 169.768Z" fill="black"/>
<path d="M25.7736 92.57L37.7129 95.8286L47.3772 80.4861L39.2819 71.125L45.3379 61.5107L78.2386 102.981L71.3666 113.891L19.7176 102.184L25.7736 92.57ZM46.5388 98.4128C57.3926 101.309 63.5293 102.95 64.9488 103.335C66.3561 103.739 67.4536 104.082 68.2411 104.364C66.1837 102.183 61.2523 96.5437 53.447 87.4457L46.5388 98.4128Z" fill="black"/>
<path d="M80.3335 31.4043L112.534 69.3106L104.497 76.1384L77.9344 44.8696L62.5593 57.9305L56.9208 51.293L80.3335 31.4043Z" fill="black"/>
<path d="M129.067 53.414C132.71 51.8391 134.937 49.2457 135.747 45.6338C136.567 42.0427 135.919 37.801 133.805 32.9088C129.404 22.7288 123.383 19.2901 115.743 22.5929C112.537 23.9788 109.001 26.4586 105.135 30.0325L101.625 21.9134C104.698 18.7322 108.544 16.1427 113.166 14.1448C119.807 11.274 125.755 11.0871 131.01 13.5841C136.274 16.102 140.535 21.1289 143.793 28.6651C145.845 33.4116 146.776 37.9382 146.587 42.2451C146.407 46.5727 145.113 50.3812 142.705 53.6706C140.286 56.9897 136.9 59.5897 132.549 61.4706C128.115 63.3874 123.197 64.2412 117.794 64.0317L117.515 54.8126C119.573 54.8866 121.596 54.852 123.585 54.7087C125.574 54.5655 127.401 54.1339 129.067 53.414Z" fill="black"/>
<path d="M175.102 29.6337L166.82 51.0461L155.514 52.1789L168.903 20.3055L166.973 1.04466L177.399 0L179.295 18.9224L198.775 47.8443L187.401 48.9839L175.102 29.6337Z" fill="black"/>
<path d="M235.71 57.9117L220.577 54.6542C213.682 53.1699 208.894 51.107 206.215 48.4655C203.509 45.8413 202.616 42.3897 203.538 38.1105C204.163 35.2059 205.363 32.9704 207.139 31.4039C208.892 29.8326 210.94 29.1019 213.283 29.2118L213.355 28.8792C210.421 27.5284 208.48 25.7652 207.533 23.5894C206.564 21.4089 206.416 18.7555 207.089 15.6292C208.044 11.1948 210.396 8.082 214.145 6.29079C217.873 4.49481 222.486 4.18864 227.984 5.3723L246.177 9.28839L235.71 57.9117ZM229.545 36.4359L223.559 35.1472C220.765 34.5459 218.654 34.5439 217.226 35.1413C215.776 35.734 214.837 37.0281 214.407 39.0235C214.006 40.886 214.407 42.3643 215.61 43.4584C216.786 44.5699 218.848 45.443 221.797 46.0778L227.218 47.2448L229.545 36.4359ZM231.306 28.2544L234.034 15.5831L227.316 14.1369C224.478 13.526 222.265 13.6182 220.679 14.4135C219.093 15.2088 218.059 16.7261 217.577 18.9655C216.708 23.0008 219.156 25.6389 224.921 26.8798L231.306 28.2544Z" fill="black"/>
<path d="M253.569 40.3655C257.935 33.3855 263.021 29.1031 268.827 27.5183C274.634 25.9335 280.767 27.1616 287.228 31.2025C293.689 35.2435 297.477 40.2211 298.593 46.1355C299.709 52.0498 298.072 58.5163 293.682 65.5347C289.293 72.5531 284.213 76.8259 278.443 78.353C272.641 79.8873 266.5 78.628 260.02 74.575C253.54 70.5221 249.755 65.56 248.666 59.689C247.557 53.8058 249.192 47.3647 253.569 40.3655ZM284.345 59.614C287.291 54.903 288.616 50.7961 288.319 47.2933C288.022 43.7905 286.095 40.9266 282.538 38.7017C275.404 34.2398 268.872 36.7487 262.943 46.2284C257.002 55.7274 257.579 62.6957 264.674 67.1336C268.232 69.3585 271.666 69.8344 274.977 68.5613C278.275 67.3075 281.398 64.3251 284.345 59.614Z" fill="black"/>
<path d="M322.26 61.5361L328.622 69.9043L311.534 82.8965L323.455 98.5767L340.544 85.5846L346.927 93.9799L307.334 124.082L300.951 115.687L316.468 103.889L304.547 88.2087L289.029 100.007L282.667 91.6384L322.26 61.5361Z" fill="black"/>
<path d="M338.458 145.01L337.374 141.714C336.362 138.632 335.001 136.525 333.291 135.392C331.561 134.266 329.532 134.085 327.205 134.85C324.856 135.622 323.334 136.838 322.639 138.499C321.936 140.138 322.034 142.326 322.933 145.063L324.431 149.62L338.458 145.01ZM323.525 124.851C328.61 123.18 333.023 123.496 336.764 125.8C340.498 128.082 343.328 132.153 345.254 138.014L346.667 142.312L363.473 136.789L366.765 146.808L319.514 162.337L314.554 147.243C312.671 141.512 312.48 136.753 313.98 132.965C315.452 129.163 318.634 126.458 323.525 124.851Z" fill="black"/>
<path d="M343.835 169.14C352.066 169.3 358.353 171.464 362.695 175.632C367.038 179.799 369.135 185.693 368.987 193.312C368.839 200.931 366.514 206.738 362.013 210.734C357.512 214.729 351.123 216.647 342.846 216.486C334.57 216.325 328.294 214.161 324.02 209.995C319.723 205.805 317.649 199.89 317.798 192.248C317.946 184.606 320.26 178.81 324.737 174.86C329.215 170.886 335.581 168.98 343.835 169.14ZM343.129 205.433C348.685 205.541 352.889 204.568 355.742 202.513C358.595 200.459 360.062 197.335 360.143 193.14C360.307 184.727 354.799 180.412 343.62 180.195C332.418 179.977 326.736 184.051 326.573 192.419C326.492 196.614 327.847 199.805 330.64 201.991C333.411 204.177 337.574 205.325 343.129 205.433Z" fill="black"/>
<path d="M327.253 250.704L328.461 247.524C329.645 244.407 329.999 241.909 329.524 240.03C329.049 238.152 327.698 236.789 325.472 235.944C323.267 235.106 321.408 235.274 319.895 236.446C318.391 237.597 317.034 239.762 315.826 242.943L314.691 245.932L327.253 250.704ZM335.267 253.748L353.109 260.525L349.364 270.384L302.868 252.723L308.014 239.175C310.414 232.857 313.345 228.62 316.808 226.466C320.249 224.304 324.313 224.113 328.999 225.893C331.734 226.932 333.886 228.611 335.456 230.929C337.004 233.24 337.859 236.003 338.021 239.218C351.131 236.192 359.615 234.199 363.473 233.238L359.318 244.178L337.261 248.5L335.267 253.748Z" fill="black"/>
<path d="M330.115 298.362L323.596 306.652L291.397 281.336L283.049 291.953L276.15 286.528L299.363 257.003L306.263 262.428L297.916 273.045L330.115 298.362Z" fill="black"/>
<path d="M293.667 316.599C296.289 320.245 297.038 324.065 295.914 328.057C294.808 332.037 291.917 335.708 287.24 339.071C282.931 342.169 278.537 344.1 274.057 344.863L268.338 336.908C271.937 336.164 274.854 335.365 277.09 334.511C279.344 333.645 281.253 332.649 282.819 331.523C284.697 330.173 285.875 328.781 286.353 327.348C286.849 325.901 286.588 324.469 285.568 323.051C284.999 322.26 284.275 321.719 283.396 321.429C282.504 321.121 281.42 320.992 280.144 321.044C278.886 321.082 276.491 321.422 272.957 322.063C269.656 322.677 267.004 322.894 265.002 322.713C263.001 322.532 261.122 321.997 259.366 321.109C257.61 320.221 256.05 318.828 254.686 316.932C252.117 313.36 251.304 309.684 252.247 305.906C253.208 302.114 255.824 298.682 260.096 295.611C262.195 294.101 264.372 292.913 266.626 292.047C268.899 291.167 271.4 290.43 274.129 289.836L276.154 298.479C273.364 299.144 271.134 299.811 269.465 300.481C267.814 301.137 266.307 301.956 264.944 302.935C263.324 304.1 262.352 305.372 262.03 306.749C261.707 308.126 261.983 309.423 262.857 310.638C263.399 311.393 264.051 311.93 264.811 312.249C265.558 312.55 266.501 312.696 267.64 312.687C268.784 312.647 271.273 312.282 275.107 311.592C280.18 310.682 284.071 310.636 286.781 311.452C289.478 312.251 291.774 313.966 293.667 316.599Z" fill="black"/>
<path d="M239.998 307.217L249.724 337.895C250.834 341.397 251.019 344.717 250.277 347.855C249.556 350.986 247.938 353.724 245.422 356.068C242.905 358.412 239.626 360.225 235.583 361.507C229.486 363.44 224.258 363.385 219.898 361.341C215.532 359.275 212.488 355.529 210.768 350.103L201.083 319.555L211.103 316.378L220.305 345.402C221.464 349.055 223.049 351.503 225.06 352.745C227.072 353.987 229.775 354.07 233.169 352.993C236.455 351.952 238.563 350.344 239.491 348.17C240.435 345.967 240.324 343.028 239.159 339.353L229.977 310.394L239.998 307.217Z" fill="black"/>
<path d="M186.151 368.267L182.95 356.312L164.828 355.694L160.821 367.403L149.465 367.016L168.711 317.702L181.597 318.142L197.507 368.654L186.151 368.267ZM180.736 347.386C177.769 336.551 176.095 330.424 175.712 329.004C175.352 327.585 175.095 326.464 174.941 325.642C174.095 328.517 171.708 335.618 167.782 346.945L180.736 347.386Z" fill="black"/>
<path d="M105.851 351.901L122.444 305.014L132.386 308.532L118.698 347.21L137.716 353.94L134.811 362.15L105.851 351.901Z" fill="black"/>
<path d="M100.401 298.707C97.2089 296.347 93.8479 295.724 90.3175 296.838C86.8005 297.932 83.458 300.623 80.2898 304.909C73.6973 313.827 73.7477 320.76 80.441 325.708C83.2497 327.784 87.1701 329.596 92.2023 331.144L86.9444 338.257C82.6505 337.198 78.4791 335.173 74.4303 332.18C68.6123 327.879 65.4632 322.83 64.983 317.031C64.5162 311.215 66.723 305.005 71.6034 298.403C74.6772 294.245 78.1236 291.166 81.9428 289.166C85.7753 287.148 89.7185 286.354 93.7722 286.784C97.8577 287.209 101.806 288.831 105.618 291.649C109.503 294.52 112.711 298.344 115.244 303.122L107.412 307.993C106.442 306.176 105.396 304.444 104.273 302.796C103.151 301.148 101.86 299.785 100.401 298.707Z" fill="black"/>
</svg>
