<svg width="203" height="192" viewBox="0 0 203 192" fill="none" xmlns="http://www.w3.org/2000/svg">
<g clip-path="url(#clip0_9_2552)">
<path d="M183.118 25.6348H127.975V79.5674H183.118V25.6348Z" fill="#A3F606"/>
<path d="M182.461 174.522L199.071 157.938C200.268 159.202 201.6 160.281 203 161.292V151.298C201.853 150.758 200.707 150.219 199.594 149.579C196.457 147.758 193.911 145.163 191.988 141.792C190.066 138.438 189.105 134.191 189.105 129.067C189.105 123.944 190.555 118.989 193.472 114.893C196.356 110.831 200.184 108.337 203 106.837V0H0V10.8539H1.70319L0 14.882V192H88.2286V102.775H118.819V192H140.505V102.775H171.095V192H203V186.944C199.644 185.815 196.423 184.517 193.472 182.882C189.155 180.489 185.496 177.708 182.461 174.522ZM62.5459 188.343H52.3773L54.3672 173.882H53.7601C44.6371 184.449 35.025 189.725 24.9239 189.725C17.8413 189.725 12.2765 187.449 8.24614 182.882C4.21582 178.315 2.20909 172.062 2.20909 164.124C2.20909 154.534 4.01346 145.635 7.63906 137.41C11.2647 129.202 16.2562 122.764 22.6305 118.112C29.0048 113.461 35.9862 111.118 43.5915 111.118C48.2795 111.118 52.4616 112.264 56.1378 114.539C59.814 116.815 62.6639 120.101 64.7044 124.399H65.5475L70.674 112.5H80.3872L62.5627 188.326L62.5459 188.343ZM96.0026 75C92.4444 81.5562 87.5203 86.6966 81.2303 90.4551C74.9404 94.2135 67.6554 96.1011 59.3756 96.1011C54.013 96.1011 49.0047 95.1236 44.3335 93.1854C42.1919 92.2921 40.2526 91.2135 38.4482 90.0337L38.5663 98.3427H8.68458L8.33045 10.8371H38.9204V15.4382C40.5899 14.2753 42.3099 13.1798 44.2492 12.2865C48.8529 10.1798 53.895 9.13483 59.3756 9.13483C67.6386 9.13483 74.9572 10.9888 81.3147 14.6798C87.6553 18.3876 92.5962 23.5449 96.0869 30.1348C99.5776 36.7416 101.331 44.2079 101.331 52.5169C101.331 60.8258 99.5607 68.4438 96.0026 74.9832V75ZM127.958 97.5506V79.5674H109.544V25.6348H127.958V7.68539H183.101V25.6348H201.516V79.5674H183.101V97.5506H127.958Z" fill="#A3F606"/>
<path d="M44.8057 120.876C39.4938 120.876 34.5697 122.865 29.9997 126.825C25.4298 130.786 21.8548 136.162 19.2578 142.955C16.6609 149.73 15.3624 156.893 15.3624 164.41C15.3624 169.668 16.5597 173.595 18.9543 176.207C21.3489 178.82 24.7215 180.118 29.0554 180.118C33.9963 180.118 38.9204 177.977 43.8276 173.713C48.718 169.449 52.6977 163.887 55.7668 157.045C58.8191 150.202 60.3536 143.325 60.3536 136.466C60.3536 131.713 58.9202 127.938 56.0704 125.123C53.2205 122.309 49.46 120.91 44.8226 120.91L44.8057 120.876Z" fill="#A3F606"/>
<path d="M62.6302 37.837C60.1175 36.3539 57.1833 35.6123 53.8107 35.6123C50.6573 35.6123 47.8242 36.3202 45.3285 37.7528C42.8158 39.1853 40.8766 41.1404 39.4769 43.6348C38.0773 46.146 37.3859 49.0955 37.3859 52.5168C37.3859 55.9381 38.0604 58.7528 39.3926 61.3146C40.7248 63.8764 42.6641 65.8988 45.1598 67.382C47.6556 68.8651 50.4886 69.6067 53.6421 69.6067C57.0147 69.6067 59.9995 68.8651 62.5627 67.382C65.1259 65.8988 67.0821 63.8764 68.4143 61.3146C69.7465 58.7528 70.421 55.8202 70.421 52.5168C70.421 49.2134 69.7465 46.3146 68.4143 43.8033C67.0821 41.2921 65.1428 39.3033 62.647 37.8202L62.6302 37.837Z" fill="#A3F606"/>
</g>
<defs>
<clipPath id="clip0_9_2552">
<rect width="203" height="192" fill="white"/>
</clipPath>
</defs>
</svg>
