<svg width="203" height="192" viewBox="0 0 203 192" fill="none" xmlns="http://www.w3.org/2000/svg">
<g clip-path="url(#clip0_9_2574)">
<path d="M29.5107 151.904H0V192H29.5107V151.904Z" fill="#A3F606"/>
<path d="M192.578 92.9492C189.307 92.9492 186.373 93.6571 183.759 95.0897C181.128 96.5222 179.037 98.4773 177.469 100.989C175.901 103.5 175.108 106.517 175.108 110.039C175.108 113.342 175.901 116.309 177.469 118.921C179.037 121.533 181.128 123.59 183.759 125.073C186.373 126.556 189.324 127.298 192.578 127.298C195.833 127.298 198.649 126.792 200.976 125.764C201.685 125.46 202.359 125.09 203 124.685V95.4942C202.157 95.0054 201.28 94.584 200.369 94.2301C198.093 93.3874 195.496 92.9492 192.578 92.9492Z" fill="#A3F606"/>
<path d="M66.1377 191.713C65.9691 191.797 65.8173 191.915 65.6487 192H79.5271C77.6047 190.837 75.3282 190.264 72.6975 190.264C70.2524 190.264 68.0601 190.752 66.1377 191.713Z" fill="#A3F606"/>
<path d="M35.9356 0.269663C34.0132 1.24719 32.5292 2.66292 31.4837 4.53371C30.4213 6.42135 29.8986 8.61236 29.8986 11.1236V125.174H54.7382V10.9382C54.7382 7.17978 53.5915 4.21348 51.3149 2.05618C50.4043 1.19663 49.4094 0.522472 48.2964 0H36.5596C36.3572 0.0842697 36.138 0.168539 35.9356 0.269663Z" fill="#A3F606"/>
<path d="M167.671 148.214C160.387 144.405 154.653 139.197 150.454 132.573C146.255 125.966 144.164 118.517 144.164 110.191C144.164 101.865 146.289 94.2472 150.538 87.6405C154.788 81.0337 160.572 75.8259 167.84 72C175.125 68.191 183.371 66.2697 192.579 66.2697C196.221 66.2697 199.695 66.6067 203 67.264V0H85.092C85.2438 1.33146 85.3281 2.69663 85.3281 4.11236V151.904H60.1176V171.421C61.5003 170.36 62.7988 169.214 64.4008 168.388C69.4767 165.775 75.3282 164.461 81.9723 164.461C85.9184 164.461 92.5456 164.545 99.7294 168.472C107.149 172.534 110.724 178.298 111.449 179.494C114.265 184.197 115.193 188.73 115.463 192H203.034V152.899C199.661 153.59 196.069 153.944 192.275 153.944C183.186 153.944 174.99 152.039 167.722 148.214H167.671ZM132.09 151.888H101.5V68.3427H132.09V151.888ZM128.414 54.0674C125.378 57.2023 121.601 58.7697 117.048 58.7697C112.495 58.7697 108.532 57.2023 105.497 54.0674C102.461 50.9326 100.96 47.1573 100.96 42.7079C100.96 38.2584 102.461 34.5 105.497 31.4326C108.532 28.3652 112.377 26.8315 117.048 26.8315C121.719 26.8315 125.378 28.3652 128.414 31.4326C131.449 34.5169 132.967 38.2753 132.967 42.7079C132.967 47.1405 131.449 50.9326 128.414 54.0674ZM194.602 173.376H148.009V154.163H194.602V173.376Z" fill="#A3F606"/>
</g>
<defs>
<clipPath id="clip0_9_2574">
<rect width="203" height="192" fill="white"/>
</clipPath>
</defs>
</svg>
