<svg width="206" height="195" viewBox="0 0 206 195" fill="none" xmlns="http://www.w3.org/2000/svg">
<g clip-path="url(#clip0_9_2580)">
<path d="M50.0369 174.733C45.7074 167.784 43.5513 160.012 43.5513 151.437C43.5513 142.861 45.7074 134.799 50.0369 127.952C54.3492 121.105 60.2873 115.696 67.8339 111.69C75.3805 107.702 83.834 105.716 93.2117 105.716C101.58 105.716 109.058 107.291 115.766 110.235L140.75 2.2766H161.918L160.361 16.638H161.182C169.653 5.88834 179.373 0.513518 190.359 0.513518C196.451 0.513518 201.653 1.95137 206 4.7586V0H0V107.873H4.12411V113.47C9.94235 108.558 17.5403 106.093 26.9522 106.093C31.0763 106.093 34.7041 106.624 37.8186 107.702C40.933 108.78 43.5684 110.441 45.7588 112.7L27.3115 136.972C26.2163 135.791 24.8131 134.867 23.119 134.217C21.4077 133.549 19.4055 133.241 17.0954 133.241C13.0739 133.241 9.90812 134.456 7.59794 136.904C5.28776 139.352 4.12411 142.946 4.12411 147.705V195.017H76.9377C73.7548 194.059 70.7259 192.809 67.8339 191.268C60.2873 187.229 54.3492 181.717 50.0369 174.75V174.733ZM29.4506 89.7972C24.2655 83.8062 21.6815 75.4016 21.6815 64.5835C21.6815 53.7654 23.889 42.8103 28.304 32.694C32.7191 22.5777 38.5202 14.7551 45.7074 9.20909C52.8947 3.6631 60.7664 0.890098 69.3569 0.890098C75.312 0.890098 80.4458 2.07119 84.7752 4.43337C89.1047 6.79556 92.4587 10.2361 94.8545 14.738H95.5903L100.844 2.65318H122.2L100.296 97.0892H79.2137L80.4971 84.8332H80.1206C71.8895 94.1279 62.1183 98.7667 50.7556 98.7667C41.7373 98.7667 34.6357 95.7712 29.4506 89.763V89.7972Z" fill="#A3F606"/>
<path d="M102.435 135.809C99.8171 134.32 96.7368 133.566 93.2116 133.566C89.9261 133.566 86.9656 134.354 84.3645 135.894C81.7463 137.435 79.6757 139.557 78.1527 142.245C76.6297 144.915 75.8767 148.048 75.8767 151.625C75.8767 155.203 76.6297 158.147 78.1527 160.817C79.6757 163.487 81.7463 165.61 84.3645 167.151C86.9656 168.691 89.9261 169.478 93.2116 169.478C96.7368 169.478 99.8513 168.708 102.521 167.151C105.19 165.61 107.261 163.487 108.733 160.817C110.204 158.147 110.923 155.014 110.923 151.437C110.923 147.859 110.17 144.744 108.647 142.057C107.124 139.386 105.053 137.298 102.435 135.809Z" fill="#A3F606"/>
<path d="M179.219 21.123C175.044 21.123 171.005 23.0231 167.12 26.8231C163.219 30.6231 160.087 35.6898 157.726 42.0232C155.364 48.3566 154.183 55.3576 154.183 63.009C154.183 67.5109 155.313 71.1226 157.589 73.8271C159.865 76.5317 162.996 77.8839 166.984 77.8839C170.971 77.8839 175.026 75.9497 178.757 72.0641C182.505 68.1784 185.516 62.8378 187.827 56.0594C190.12 49.281 191.283 42.5881 191.283 35.998C191.283 26.0871 187.262 21.1402 179.219 21.1402V21.123Z" fill="#A3F606"/>
<path d="M61.622 78.2599C65.8488 78.2599 69.9387 76.377 73.8575 72.5941C77.7762 68.8283 80.942 63.7102 83.3378 57.257C85.7335 50.8038 86.9314 43.5118 86.9314 35.3469C86.9314 31.3415 85.7506 28.0378 83.3891 25.4189C81.0276 22.7999 77.9131 21.499 74.0457 21.499C69.8702 21.499 65.9002 23.5189 62.1183 27.5757C58.3364 31.6325 55.3418 36.973 53.1 43.6317C50.8583 50.2732 49.746 56.8633 49.746 63.4021C49.746 68.3661 50.7727 72.0806 52.8262 74.5455C54.8797 77.0275 57.8059 78.2599 61.622 78.2599Z" fill="#A3F606"/>
<path d="M193.525 140.995C192.07 143.614 191.335 146.712 191.335 150.29C191.335 153.867 192.036 156.811 193.439 159.482C194.843 162.169 196.845 164.275 199.463 165.832C201.448 167.013 203.638 167.732 206 168.006V132.762C203.69 133.053 201.568 133.737 199.634 134.85C197.016 136.339 194.98 138.393 193.525 140.995Z" fill="#A3F606"/>
<path d="M192.242 189.352V195H205.983C203.45 194.487 200.986 193.751 198.625 192.775C196.297 191.816 194.192 190.652 192.242 189.352Z" fill="#A3F606"/>
<path d="M192.977 106.709V111.519C194.723 110.303 196.52 109.157 198.539 108.232C200.918 107.154 203.399 106.332 206 105.784V78.7734C203.022 82.9672 199.617 86.6131 195.784 89.6771C188.477 95.497 180.451 98.4241 171.672 98.4241C166.573 98.4241 162.192 97.3799 158.513 95.2916C154.834 93.2033 151.428 89.66 148.297 84.6447H147.561C146.825 93.597 145.507 101.899 143.608 109.567L138.577 131.375C141.623 137.383 143.231 144.042 143.231 151.436C143.231 160.012 141.109 167.783 136.848 174.733C132.587 181.7 126.684 187.211 119.137 191.251C116.245 192.792 113.199 194.041 110.016 195H161.046V106.726H192.995L192.977 106.709Z" fill="#A3F606"/>
</g>
<defs>
<clipPath id="clip0_9_2580">
<rect width="206" height="195" fill="white"/>
</clipPath>
</defs>
</svg>
