<svg width="203" height="192" viewBox="0 0 203 192" fill="none" xmlns="http://www.w3.org/2000/svg">
<g clip-path="url(#clip0_9_2568)">
<path d="M39.2746 0H14.435V67.0663H39.2746V0Z" fill="#A3F606"/>
<path d="M179.139 115.196H132.545V172.795H179.139V115.196Z" fill="#A3F606"/>
<path d="M184.906 36.207C182.629 35.3661 180.032 34.9289 177.115 34.9289C173.843 34.9289 170.909 35.6352 168.295 37.0646C165.665 38.4941 163.574 40.4449 162.005 42.9506C160.437 45.4563 159.645 48.4666 159.645 51.9813C159.645 55.2775 160.437 58.2373 162.005 60.8439C163.574 63.4506 165.665 65.5022 168.295 66.9821C170.909 68.462 173.86 69.202 177.115 69.202C180.369 69.202 183.186 68.6975 185.513 67.6716C187.84 66.6458 189.88 65.1659 191.634 63.2319L203.017 74.2303V28.4375L191.111 40.0412C189.256 38.3427 187.182 37.0646 184.906 36.207Z" fill="#A3F606"/>
<path d="M203 88.3398C200.605 89.887 198.127 91.2156 195.563 92.2918C190.032 94.6126 183.759 95.7898 176.761 95.7898C167.671 95.7898 159.476 93.8895 152.208 90.072C144.923 86.2714 139.189 81.0749 134.99 74.4658C130.792 67.8735 128.7 60.4404 128.7 52.1328C128.7 43.8252 130.825 36.2239 135.075 29.6316C139.324 23.0393 145.108 17.8429 152.376 14.0254C159.661 10.2248 167.908 8.30761 177.115 8.30761C183.759 8.30761 189.847 9.40072 195.395 11.5533C198.059 12.596 200.605 13.8909 203.017 15.438V0H69.8476V93.7381H44.6371V113.212C46.0199 112.153 47.3183 111.009 48.9203 110.185C53.9962 107.579 59.8477 106.267 66.4919 106.267C70.4379 106.267 77.0651 106.351 84.232 110.269C91.6519 114.322 95.2269 120.074 95.952 121.268C100.033 128.062 100.168 134.587 100.067 137.294V191.327H69.4767V144.105C69.4767 140.355 68.3299 137.395 66.0534 135.243C63.7769 133.09 60.8427 131.997 57.2339 131.997C54.7887 131.997 52.5965 132.485 50.6741 133.443C48.7517 134.419 47.2677 135.831 46.2222 137.698C45.1598 139.581 44.6371 141.768 44.6371 144.273V191.327H14.0471V93.7213H0V115.937C1.45024 117.786 2.76558 119.771 3.92914 121.94C7.41984 128.533 9.17362 135.982 9.17362 144.273C9.17362 152.564 7.40297 160.165 3.84482 166.69C2.71499 168.776 1.43338 170.693 0.0168633 172.492V191.546H132.562V172.745H117.014V115.146H132.562V95.9748H179.155V115.146H194.703V172.745H179.155V191.546H203.017V88.3062L203 88.3398ZM116.626 93.7549H86.0364V10.3761H116.626V93.7381V93.7549Z" fill="#A3F606"/>
<path d="M179.139 191.579H132.545V192H179.139V191.579Z" fill="#A3F606"/>
</g>
<defs>
<clipPath id="clip0_9_2568">
<rect width="203" height="192" fill="white"/>
</clipPath>
</defs>
</svg>
