<svg width="206" height="195" viewBox="0 0 206 195" fill="none" xmlns="http://www.w3.org/2000/svg">
<g clip-path="url(#clip0_9_2557)">
<path d="M11.7049 5.45455C16.8045 2.49638 22.4687 0.752255 28.6634 0.205078H0V15.868C3.13158 11.6445 7.03323 8.17334 11.7049 5.45455Z" fill="#A3F606"/>
<path d="M30.5971 54.9402C33.01 56.445 35.7651 57.1973 38.8453 57.1973C42.1652 57.1973 45.0058 56.4792 47.3673 55.0428C49.7289 53.5894 51.5941 51.6914 52.9631 49.3146C54.315 46.9549 54.9995 44.3729 54.9995 41.6028C54.9995 38.8327 54.3492 36.114 53.0487 33.8056C51.7481 31.4972 49.8829 29.6162 47.4529 28.1799C45.04 26.7436 42.2165 26.0254 39.0336 26.0254C35.8506 26.0254 33.0613 26.7436 30.6998 28.1799C28.3212 29.6333 26.473 31.5314 25.104 33.9082C23.7521 36.2678 23.0676 38.7814 23.0676 41.4489C23.0676 44.1164 23.7179 46.6471 25.0185 49.0752C26.319 51.5033 28.1843 53.4697 30.5971 54.9573V54.9402Z" fill="#A3F606"/>
<path d="M203.81 53.555C203.81 57.6588 204.545 60.8735 206 63.2332V37.9092C204.545 43.1587 203.81 48.3739 203.81 53.555Z" fill="#A3F606"/>
<path d="M12.321 121.405C12.7317 121.559 13.1595 121.678 13.5702 121.815C13.7413 121.849 13.9124 121.866 14.1007 121.866C13.5189 121.713 12.937 121.559 12.321 121.388V121.405Z" fill="white"/>
<path d="M23.6494 97.7569C30.2891 98.6974 41.5491 99.501 47.7267 94.2858C49.0786 93.1401 50.0369 91.8406 50.1738 91.6525C52.0904 88.9679 53.0658 85.6335 53.0658 81.6323V77.7337C51.5086 78.7425 49.9171 79.7343 48.1032 80.5038C43.6026 82.4189 38.64 83.3764 33.1982 83.3764C25.1553 83.3764 18.0023 81.5468 11.7392 77.9047C7.06745 75.1859 3.16581 71.7147 0.0342255 67.4912V94.6961C11.106 93.807 21.2708 96.9703 23.6837 97.7398L23.6494 97.7569Z" fill="#A3F606"/>
<path d="M23.6494 97.7568C23.6494 97.7568 23.7521 97.8081 23.8035 97.8252C23.7863 97.8252 23.7692 97.791 23.735 97.7739C23.7008 97.7739 23.6666 97.7568 23.6494 97.7568Z" fill="white"/>
<path d="M197.803 139.017C197.803 130.468 199.908 122.859 204.101 116.224C204.699 115.284 205.333 114.36 206 113.471V87.8735C205.606 87.8735 205.196 87.9077 204.802 87.9077C196.041 87.9077 189.127 85.0008 184.096 79.17C179.065 73.3562 176.532 65.1828 176.532 54.7009C176.532 44.2191 178.671 33.5662 182.967 23.7513C187.262 13.9363 192.892 6.34421 199.874 0.957943C200.216 0.701454 200.558 0.462065 200.9 0.222675H159.009C161.405 0.462065 163.63 0.889546 165.597 1.57352C168.609 2.61657 171.176 4.241 173.315 6.42971L155.381 30.0096C154.32 28.8639 152.968 27.9577 151.309 27.325C149.649 26.6923 147.698 26.3674 145.456 26.3674C141.554 26.3674 138.474 27.5473 136.232 29.9241C133.991 32.3009 132.861 35.7891 132.861 40.423V86.5227H101.819V1.72741H132.861V7.14788C137.601 3.14665 143.574 0.838249 150.778 0.188477H37.2881C41.1726 0.56466 44.7662 1.43672 48.0689 2.83886C50.1396 3.72802 52.0048 4.80528 53.7503 6.00223V1.72741H84.0907V80.5892C84.0907 89.7202 81.9345 97.5688 77.6222 104.169C73.3099 110.752 67.4232 115.865 59.9792 119.507C52.5182 123.149 44.0646 124.962 34.6185 124.962C26.8324 124.962 19.8676 123.867 13.6044 121.798C12.8686 121.662 12.321 121.371 12.3552 121.388C7.34125 120.037 5.04818 118.498 2.94335 119.576C2.10484 120.003 1.5059 120.858 1.43745 121.662C1.28344 123.286 3.20003 124.774 4.27812 125.304C6.1776 126.227 8.67603 127.065 11.8247 127.817C14.9563 128.57 18.2077 129.527 21.5788 130.673C24.95 131.836 28.2014 133.426 31.3329 135.444C34.4645 137.461 37.0143 140.163 38.9651 143.497C40.9159 146.849 41.8913 151.175 41.8913 156.493C41.8913 164.82 38.6057 171.472 32.0517 176.431C25.4805 181.406 16.582 183.886 5.35621 183.886C3.59362 183.886 1.81392 183.783 0.0342255 183.629V194.966H76.1676V161.725C76.1676 157.861 76.9035 154.783 78.3409 152.457C79.7955 150.132 81.9688 147.567 84.8779 144.729C87.1538 142.694 88.8993 140.813 90.0972 139.12C91.2951 137.41 92.048 135.307 92.356 132.827H69.1686V127.903H78.512C82.3452 127.903 85.2372 125.885 87.1538 121.85C89.0704 117.831 90.2683 113.864 90.7304 109.949C91.1924 106.05 91.74 100.185 92.3731 92.3535H96.7368L96.8908 127.903H126.461V132.827H96.8908V194.983H206.068V164.41C205.401 163.504 204.768 162.58 204.169 161.606C199.959 154.851 197.872 147.311 197.872 138.983L197.803 139.017ZM177.936 122.294C176.276 121.662 174.325 121.337 172.083 121.337C168.181 121.337 165.101 122.517 162.859 124.893C160.618 127.27 159.488 130.758 159.488 135.392V181.492H128.446V96.7309H159.488V102.151C165.153 97.3807 172.528 94.9868 181.666 94.9868C185.688 94.9868 189.213 95.4998 192.224 96.5428C195.236 97.5859 197.803 99.2103 199.942 101.399L182.008 124.979C180.947 123.833 179.595 122.927 177.936 122.294Z" fill="#A3F606"/>
<path d="M9.65145 159.297C11.0033 158.595 11.6878 157.621 11.6878 156.355C11.6878 154.492 10.6782 153.09 8.67603 152.115C6.65676 151.123 4.12411 150.268 1.04387 149.516C0.701619 149.43 0.342257 149.328 -0.0171051 149.242V160.152C1.19788 160.271 2.42998 160.357 3.6963 160.357C6.2974 160.357 8.28245 160.015 9.63433 159.314L9.65145 159.297Z" fill="#A3F606"/>
<path d="M32.9929 0C31.5212 0 30.0837 0.0854963 28.6805 0.205191H37.3052C35.902 0.068397 34.4816 0 33.01 0H32.9929Z" fill="#A3F606"/>
<path d="M155.056 0C153.584 0 152.164 0.0854963 150.795 0.205191H159.026C157.76 0.0854963 156.442 0 155.056 0Z" fill="#A3F606"/>
</g>
<defs>
<clipPath id="clip0_9_2557">
<rect width="206" height="195" fill="white"/>
</clipPath>
</defs>
</svg>
